The Yes Men Fix the World (2009)

The film consists of a several pranks on major 
corporations and governmental agencies that are 
performed by Andy Bichlbaum and Mike Bonanno 
(in real life Jacques Servin & Igor Vamos) who 
fancy themselves serious anti-globalization activists. 

Codec ID                         : M4V 
File size                        : 346 MiB
Duration                         : 1h 35mn
Overall bit rate                 : 506 Kbps
Movie name                       : The.Yes.Men.Fix.The.World
Writing application              : Lavf52.39.1
Comment                          : QuickTime 6.0 or greater

Video
ID                               : 1
Format                           : MPEG-4 Visual
Format profile                   : Simple@L1
Format settings, BVOP            : No
Format settings, QPel            : No
Format settings, GMC             : No warppoints
Format settings, Matrix          : Default (H.263)
Codec ID                         : 20
Duration                         : 1h 35mn
Bit rate mode                    : Constant
Bit rate                         : 440 Kbps
Width                            : 640 pixels
Height                           : 480 pixels
Display aspect ratio             : 4:3
Original display aspect ratio    : 16:9
Frame rate mode                  : Constant
Frame rate                       : 25.000 fps
Color space                      : YUV
Chroma subsampling               : 4:2:0
Bit depth                        : 8 bits
Scan type                        : Progressive
Bits/(Pixel*Frame)               : 0.057
Stream size                      : 300 MiB (87%)
Writing library                  : Lavc52.37.0
Language                         : English

Audio
ID                               : 2
Format                           : AAC
Format/Info                      : Advanced Audio Codec
Format version                   : Version 4
Format profile                   : LC
Format settings, SBR             : Yes
Format settings, PS              : No
Codec ID                         : 40
Duration                         : 1h 35mn
Bit rate mode                    : Constant
Bit rate                         : 64.0 Kbps
Channel(s)                       : 2 channels
Channel positions                : Front: L R
Sampling rate                    : 48.0 KHz
Stream size                      : 43.8 MiB (13%)
Language                         : English

Please seed after you download.